# xmcd
#
# Track frame offsets:
#	150
#	20994
#	39119
#	60808
#	81715
#	98962
#	119532
#	139089
#
# Disc length: 2105 seconds
#
# Revision: 1
# Processed by: cddbd v1.5.1PL2 Copyright (c) Steve Scherf et al.
# Submitted via: audiograbber 1.83.01
#
DISCID=69083708
DTITLE=Reencuentros - Willie Gonzalez
DYEAR=2004
DGENRE=Salsa
TTITLE0=Por Esa Mujer con Eddie Santiago
TTITLE1=Cuando Pienses en Mi
TTITLE2=Eres Todo y Mucho Mas
TTITLE3=Recuerda Que Siempre Te Quiero
TTITLE4=Solamente Ella con Eddie Santiago
TTITLE5=Un Amor Como el Nuestro
TTITLE6=Amame Toda la Noche
TTITLE7=Irremediablemente
EXTD=
EXTT0=
EXTT1=
EXTT2=
EXTT3=
EXTT4=
EXTT5=
EXTT6=
EXTT7=
PLAYORDER=
